<svg width="20" height="19" viewBox="0 0 20 19" fill="none" xmlns="http://www.w3.org/2000/svg">
<path d="M9.25407 0.835438C9.65167 0.390131 10.3483 0.390131 10.7459 0.835438L12.228 2.4953C12.4513 2.74548 12.7853 2.86702 13.1172 2.81896L15.3194 2.50006C15.9103 2.41451 16.4439 2.86232 16.4623 3.45902L16.5307 5.68317C16.541 6.01841 16.7186 6.32616 17.0038 6.5027L18.8958 7.67399C19.4034 7.98822 19.5244 8.67431 19.1549 9.14319L17.7776 10.8909C17.57 11.1544 17.5083 11.5043 17.6132 11.8229L18.3097 13.9363C18.4966 14.5033 18.1482 15.1066 17.5638 15.2283L15.3853 15.6818C15.0569 15.7502 14.7847 15.9786 14.6604 16.2901L13.8354 18.3567C13.6141 18.9112 12.9594 19.1495 12.4335 18.867L10.4732 17.8141C10.1777 17.6554 9.82232 17.6554 9.52684 17.8141L7.56648 18.867C7.04056 19.1495 6.3859 18.9112 6.16459 18.3567L5.33964 16.2901C5.2153 15.9786 4.94308 15.7502 4.61472 15.6818L2.43622 15.2283C1.85178 15.1066 1.50344 14.5033 1.69029 13.9363L2.38675 11.8229C2.49173 11.5043 2.43002 11.1544 2.22243 10.8909L0.845138 9.14319C0.475638 8.67431 0.596614 7.98822 1.1042 7.67399L2.99619 6.5027C3.28137 6.32616 3.45904 6.01841 3.46935 5.68317L3.53771 3.45902C3.55606 2.86232 4.08973 2.41451 4.68055 2.50006L6.88279 2.81896C7.21473 2.86702 7.54865 2.74548 7.77203 2.4953L9.25407 0.835438Z" fill="url(#paint0_linear)"/>
<defs>
<linearGradient id="paint0_linear" x1="-218.543" y1="-90.0387" x2="-1.96239" y2="46.3202" gradientUnits="userSpaceOnUse">
<stop stop-color="#FFA200"/>
<stop offset="0.1697" stop-color="#FEC91D"/>
<stop offset="0.2918" stop-color="#FFAA06"/>
<stop offset="0.3879" stop-color="#FFB900"/>
<stop offset="0.5338" stop-color="#FDF1AB"/>
<stop offset="0.5801" stop-color="#FECB28"/>
<stop offset="0.7273" stop-color="#FDD947"/>
<stop offset="0.9146" stop-color="#FFB203"/>
<stop offset="1" stop-color="#FDFCD8"/>
</linearGradient>
</defs>
</svg>
